<?xml version="1.0" encoding="UTF-8" standalone="no"?>
<svg
   xmlns:dc="http://purl.org/dc/elements/1.1/"
   xmlns:cc="http://creativecommons.org/ns#"
   xmlns:rdf="http://www.w3.org/1999/02/22-rdf-syntax-ns#"
   xmlns:svg="http://www.w3.org/2000/svg"
   xmlns="http://www.w3.org/2000/svg"
   xmlns:sodipodi="http://sodipodi.sourceforge.net/DTD/sodipodi-0.dtd"
   xmlns:inkscape="http://www.inkscape.org/namespaces/inkscape"
   id="svg2"
   version="1.1"
   inkscape:version="0.48.5 r10040"
   width="100%"
   height="100%"
   sodipodi:docname="picto.svg">
  <metadata
     id="metadata3294">
    <rdf:RDF>
      <cc:Work
         rdf:about="">
        <dc:format>image/svg+xml</dc:format>
        <dc:type
           rdf:resource="http://purl.org/dc/dcmitype/StillImage" />
      </cc:Work>
    </rdf:RDF>
  </metadata>
  <sodipodi:namedview
     pagecolor="#ffffff"
     bordercolor="#666666"
     borderopacity="1"
     objecttolerance="10"
     gridtolerance="10"
     guidetolerance="10"
     inkscape:pageopacity="0"
     inkscape:pageshadow="2"
     inkscape:window-width="1229"
     inkscape:window-height="919"
     id="namedview3292"
     showgrid="false"
     inkscape:zoom="1.06"
     inkscape:cx="372.04724"
     inkscape:cy="652.43367"
     inkscape:window-x="0"
     inkscape:window-y="0"
     inkscape:window-maximized="0"
     inkscape:current-layer="g12095" />
  <defs
     id="defs5">
    <clipPath
       clipPathUnits="userSpaceOnUse"
       id="clipPath3428">
      <path
         style="opacity:1;fill:none;fill-opacity:1;stroke:#000000;stroke-width:11.44032955;stroke-linecap:round;stroke-linejoin:round;stroke-miterlimit:4;stroke-dasharray:none;stroke-opacity:1"
         id="path3430"
         d="M 217.68127,-211.35745 A 343.83746,343.83746 0 1 1 -469.99365,-211.35745 A 343.83746,343.83746 0 1 1 217.68127,-211.35745 z"
         transform="matrix(0.8741007,0,0,0.8741007,245.08718,124.28294)" />
    </clipPath>
    <clipPath
       clipPathUnits="userSpaceOnUse"
       id="clipPath3435">
      <path
         d="m 1025.007,-181.04213 a 273.83896,273.83896 0 0 1 -547.67788,0 273.83896,273.83896 0 1 1 547.67788,0 z"
         id="use3437"
         style="fill:#d7f4d7;fill-opacity:1;stroke:#87de87;stroke-width:9.11130524;stroke-linecap:round;stroke-linejoin:round;stroke-miterlimit:4;stroke-opacity:1;stroke-dasharray:none"
         inkscape:connector-curvature="0" />
    </clipPath>
    <clipPath
       clipPathUnits="userSpaceOnUse"
       id="clipPath3441">
      <path
         d="m 1264.0355,257.39937 a 300.54858,300.54858 0 0 1 -601.09717,0 300.54858,300.54858 0 1 1 601.09717,0 z"
         id="use3443"
         style="fill:#d7f4d7;fill-opacity:1;stroke:#87de87;stroke-width:10;stroke-linecap:round;stroke-linejoin:round;stroke-miterlimit:4;stroke-opacity:1;stroke-dasharray:none"
         inkscape:connector-curvature="0" />
    </clipPath>
    <clipPath
       clipPathUnits="userSpaceOnUse"
       id="clipPath3447">
      <path
         d="m 657.99109,257.39937 a 300.54856,300.54856 0 0 1 -601.097126,0 300.54856,300.54856 0 1 1 601.097126,0 z"
         id="use3449"
         style="fill:#d7f4d7;fill-opacity:1;stroke:#87de87;stroke-width:10;stroke-linecap:round;stroke-linejoin:round;stroke-miterlimit:4;stroke-opacity:1;stroke-dasharray:none"
         inkscape:connector-curvature="0" />
    </clipPath>
    <clipPath
       clipPathUnits="userSpaceOnUse"
       id="clipPath3453">
      <path
         d="m 39.578402,358.81905 a 300.54857,300.54857 0 0 1 -601.097132,0 300.54857,300.54857 0 1 1 601.097132,0 z"
         id="use3455"
         style="fill:#d7f4d7;fill-opacity:1;stroke:#87de87;stroke-width:10;stroke-linecap:round;stroke-linejoin:round;stroke-miterlimit:4;stroke-opacity:1;stroke-dasharray:none"
         inkscape:connector-curvature="0" />
    </clipPath>
  </defs>
  <g
     id="g12095"
     transform="translate(-4.5403586,-1.9250825)">
    <g
       transform="matrix(0.2833933,0,0,0.2833933,199.73847,321.51394)"
       id="g3488">
      <path
         transform="matrix(0.8741007,0,0,0.8741007,-150.69695,543.56675)"
         d="M 217.68127,-211.35745 A 343.83746,343.83746 0 1 1 -469.99365,-211.35745 A 343.83746,343.83746 0 1 1 217.68127,-211.35745 z"
         id="use3420"
         style="fill:#ffd5d5;fill-opacity:1;stroke:#ff8080;stroke-width:11.44032955;stroke-linecap:round;stroke-linejoin:round;stroke-miterlimit:4;stroke-dasharray:none;stroke-opacity:1" />
      <g
         id="g3267"
         clip-path="url(#clipPath3453)">
        <path
           id="path2432"
           d="M -575.83187,459.77226 C -575.83187,459.77226 -494.3426,424.89425 -469.00452,415.38462 C -457.06274,410.90275 -439.38641,409.4406 -428.28054,403.16742 C -415.35283,395.86517 -399.08848,382.74711 -391.62896,369.9095 C -388.36072,364.28495 -377.89266,314.64104 -371.9457,291.8552 C -370.84818,287.65006 -360.39908,262.53409 -352.26244,249.77376 C -341.63425,233.10606 -319.96375,211.99945 -308.1448,196.15385 C -304.2605,190.9462 -301.20021,182.42193 -296.60633,177.82805 C -287.41858,168.6403 -272.18202,159.14696 -259.95475,154.75113 C -253.9655,152.59793 -247.51385,151.64846 -241.62896,154.0724 C -239.4823,154.95659 -236.46132,158.47219 -234.1629,158.1448 C -218.02071,155.84548 -186.02958,153.37549 -168.32579,162.21719 C -160.18523,166.28279 -152.4078,177.01037 -148.64253,185.29412 C -145.33844,192.56325 -150.07539,201.79337 -151.09892,207.02436 C -143.91899,210.54747 -117.30919,245.2484 -112.66968,258.59729 C -110.86357,263.79388 -112.91255,267.18847 -111.31222,272.45207 C -107.05985,277.81333 -100.18262,289.09266 -97.058824,296.60633 C -93.361706,305.49901 -91.385245,318.36573 -89.59276,327.82805 C -87.143387,340.758 -80.279497,358.50323 -83.484163,371.26697 C -86.003257,381.30017 -98.736584,386.73993 -102.48868,396.38009 C -103.15747,398.09838 -104.60147,403.87729 -105.88236,405.20362 C -125.22487,425.2325 -154.94264,440.93959 -185.97285,470.36199 C -201.02388,484.63316 -215.69089,501.1064 -233.48417,511.7647 C -241.76993,516.72793 -257.95091,524.05397 -266.74208,528.0543 C -282.44417,535.19937 -296.75949,547.87983 -314.25339,555.20362 C -324.95188,559.68252 -354.39681,570.15668 -369.9095,577.60181 C -399.26236,591.68937 -439.60576,619.68326 -458.82353,627.82806 L -575.83187,459.77226 z"
           style="opacity:1;fill:#ffffff;fill-opacity:1;stroke:#000000;stroke-width:3.52866483;stroke-linecap:round;stroke-linejoin:round;stroke-miterlimit:4;stroke-dasharray:none;stroke-opacity:1" />
        <path
           id="path3224"
           d="M -150.28934,207.57783 C -154.75169,205.15381 -162.33334,202.72978 -168.87351,200.30576"
           style="opacity:1;fill:#ffffff;fill-opacity:0.09615383;stroke:#000000;stroke-width:3.52866483;stroke-linecap:round;stroke-linejoin:round;stroke-miterlimit:4;stroke-dasharray:none;stroke-opacity:1" />
        <path
           id="path3226"
           d="M -219.23929,191.14835 C -214.43835,192.9487 -193.22987,185.78292 -180.99362,189.80167 C -168.83963,193.7934 -164.14315,211.93769 -157.02273,216.46591"
           style="opacity:1;fill:#ffffff;fill-opacity:0.09615383;stroke:#000000;stroke-width:3.52866483;stroke-linecap:round;stroke-linejoin:round;stroke-miterlimit:4;stroke-dasharray:none;stroke-opacity:1" />
        <path
           id="path3228"
           d="M -168.0655,235.05008 C -161.11164,239.91778 -143.84156,238.27963 -136.01455,243.66882 C -128.18753,249.058 -125.56785,264.01405 -118.77706,272.48774 L -118.77706,272.48774"
           style="opacity:1;fill:#ffffff;fill-opacity:0.09615383;stroke:#000000;stroke-width:3.52866483;stroke-linecap:round;stroke-linejoin:round;stroke-miterlimit:4;stroke-dasharray:none;stroke-opacity:1" />
        <path
           id="path3230"
           d="M -110.42765,273.56509 C -116.41829,266.17479 -120.59172,263.32749 -125.24112,259.29029"
           style="opacity:1;fill:#ffffff;fill-opacity:0.09615383;stroke:#000000;stroke-width:3.52866483;stroke-linecap:round;stroke-linejoin:round;stroke-miterlimit:4;stroke-dasharray:none;stroke-opacity:1" />
        <path
           id="path3232"
           d="M -99.923554,303.73068 C -100.95135,305.78629 -92.700643,315.78159 -91.035479,321.23751 C -89.370315,326.69343 -91.586568,337.06623 -91.035479,339.82168 L -91.035479,339.82168"
           style="opacity:1;fill:#ffffff;fill-opacity:0.09615383;stroke:#000000;stroke-width:3.52866483;stroke-linecap:round;stroke-linejoin:round;stroke-miterlimit:4;stroke-dasharray:none;stroke-opacity:1" />
      </g>
    </g>
    <g
       transform="matrix(0.2833933,0,0,0.2833933,-78.235406,607.09157)"
       id="g3472">
      <path
         transform="matrix(0.8741007,0,0,0.8741007,1073.7601,442.14707)"
         d="m 217.68127,-211.35745 a 343.83746,343.83746 0 1 1 -687.67492,0 343.83746,343.83746 0 1 1 687.67492,0 z"
         id="use3424"
         style="fill:#f6d5ff;fill-opacity:1;stroke:#e580ff;stroke-width:11.44032955;stroke-linecap:round;stroke-linejoin:round;stroke-miterlimit:4;stroke-opacity:1;stroke-dasharray:none"
         inkscape:connector-curvature="0" />
      <g
         id="g3281"
         clip-path="url(#clipPath3441)">
        <path
           id="path3275"
           d="m 612.21719,428.28054 c 0.54519,-1.19942 108.5909,-50.11657 134.38914,-65.15837 4.37967,-2.55359 70.17712,-99.08291 114.02715,-143.8914 6.19058,-6.32589 8.31905,-17.03485 14.56677,-26.49327 5.07422,-7.68185 14.48215,-14.07736 18.01242,-20.33931 12.43349,-22.05439 24.36801,-53.87985 36.65158,-76.0181 7.94827,-14.324891 20.09988,-32.521946 29.18552,-46.153846 7.86373,-11.798579 21.59343,-33.708967 31.22173,-44.1176463 10.4712,-11.3198665 31.82,-13.355515 35.2941,8.8235293 2.0165,12.873452 -15.3148,38.872293 -22.3982,54.977375 -6.35107,14.439985 -15.40817,33.454928 -21.0407,48.190048 -3.76237,9.84263 -6.5305,21.5164 -10.76308,33.29286 -3.86296,10.74807 -9.39924,21.58167 -8.92018,31.18677 0.29969,6.0088 2.05337,13.93423 6.78733,17.64706 5.58554,4.38072 41.60853,-30.21781 67.19453,-41.40271 12.4946,-5.462 24.6731,-14.55738 48.1901,-25.11313 9.4321,-4.23363 20.5881,-12.40316 29.8642,-16.96832 8.9595,-4.40934 31.5219,-12.81026 41.4028,-14.25339 13.1049,-1.914 26.5393,14.67346 21.0407,29.18552 -1.9597,5.1721 -31.8987,22.2367 -45.4751,31.90045 -18.4164,13.10892 -44.6669,28.57991 -61.086,44.11765 -20.7638,19.64917 -65.0327,33.92481 -70.58824,44.79638 -0.87411,1.71054 1.66184,4.59856 3.39364,5.42986 3.1421,1.50833 8.1442,-2.1492 11.5385,-1.35746 8.7453,2.0399 19.3782,9.3793 25.1131,16.28959 16.6011,20.00342 -4.4227,36.61783 -8.1448,46.83258 -1.33,3.64994 9.7371,9.87427 10.8597,21.71945 1.0472,11.04997 -3.831,22.83579 -11.5384,29.18553 -9.4346,7.7727 -27.4635,10.97544 -35.29414,20.36199 -1.9391,2.32439 -1.05531,7.58004 -3.39367,9.50226 -27.3714,22.50034 -49.2868,42.79225 -70.58823,58.37104 -20.96028,15.32929 -60.00241,39.01365 -71.26697,37.33032 -6.38198,-0.95369 -44.35946,24.56263 -83.48416,42.08144 -23.77738,10.64677 -73.9819,45.47512 -73.9819,45.47512 L 612.21719,428.28054 z"
           style="fill:#ffffff;fill-opacity:1;stroke:#000000;stroke-width:3.52866483;stroke-linecap:round;stroke-linejoin:round;stroke-miterlimit:4;stroke-opacity:1;stroke-dasharray:none"
           inkscape:connector-curvature="0" />
        <path
           id="path3277"
           d="m 1032.3529,322.39819 c -6.7999,-9.80601 -20.2904,-13.71356 -21.0407,-19.00452"
           style="fill:#ffffff;fill-opacity:0.06089747;stroke:#000000;stroke-width:3.52866483;stroke-linecap:round;stroke-linejoin:round;stroke-miterlimit:4;stroke-opacity:1;stroke-dasharray:none"
           inkscape:connector-curvature="0" />
        <path
           id="path3279"
           d="m 1003.8462,382.80543 9.5022,-8.1448 12.2172,-3.39366"
           style="fill:#ffffff;fill-opacity:0.06089747;stroke:#000000;stroke-width:3.52866483;stroke-linecap:round;stroke-linejoin:round;stroke-miterlimit:4;stroke-opacity:1;stroke-dasharray:none"
           inkscape:connector-curvature="0" />
      </g>
    </g>
    <g
       transform="matrix(0.2833933,0,0,0.2833933,162.58462,217.06255)"
       id="g3465">
      <path
         transform="matrix(0.8741007,0,0,0.8741007,771.97479,-183.68657)"
         d="M 217.68127,-211.35745 A 343.83746,343.83746 0 1 1 -469.99365,-211.35745 A 343.83746,343.83746 0 1 1 217.68127,-211.35745 z"
         id="use3418"
         style="fill:#d5e5ff;fill-opacity:1;stroke:#80b3ff;stroke-width:11.44032955;stroke-linecap:round;stroke-linejoin:round;stroke-miterlimit:4;stroke-dasharray:none;stroke-opacity:1" />
      <g
         id="g3409"
         transform="matrix(1.0975376,0,0,1.0975376,-162.73363,-169.73372)"
         clip-path="url(#clipPath3435)">
        <path
           id="path3403"
           d="M 699.96267,141.26357 C 697.92986,131.09955 700.72094,15.295787 697.92986,-1.0328054 C 685.0796,-14.269898 656.14647,-25.029378 637.6233,-45.076923 C 621.29821,-62.745495 614.72502,-87.292435 599.6776,-106.06109 C 591.85055,-115.82378 576.09863,-134.65404 566.47511,-142.65158 C 558.31389,-149.43388 536.85041,-159.8234 536.66064,-170.43326 C 536.47953,-180.55901 550.34868,-184.60304 560.3767,-186.0181 C 577.79582,-188.47613 612.08935,-170.5182 618.65045,-162.30204 C 620.45861,-160.03777 645.56276,-137.9924 655.24095,-124.35633 C 665.34905,-126.47319 657.92493,-162.84032 658.62897,-173.14367 C 659.62762,-187.75849 659.98416,-204.31335 659.30656,-207.02376 C 658.62896,-209.73416 655.24095,-228.70701 654.56335,-236.16063 C 653.88574,-243.61425 648.46493,-265.29751 648.46493,-268.68552 C 648.46493,-272.07353 645.07692,-297.1448 645.07692,-301.88801 C 645.07692,-306.63123 644.99703,-319.58393 643.72172,-329.66968 C 642.46885,-339.57798 640.58452,-361.79086 642.36652,-377.77941 C 643.70112,-389.75374 658.17131,-401.30274 670.82579,-392.00905 C 676.03018,-388.18685 678.19258,-378.63574 680.98982,-373.0362 C 679.54678,-379.64774 675.68588,-399.24246 677.60181,-410.3043 C 681.37638,-432.09718 704.64928,-431.12179 710.8043,-419.79072 C 717.03062,-408.32839 720.84321,-381.74084 725.71154,-366.26018 C 731.5546,-347.68001 734.87614,-321.5967 738.58597,-301.21041 C 746.09346,-285.97884 749.40951,-262.29583 757.55882,-248.35747 C 759.86451,-244.41388 764.51975,-239.92628 769.07806,-240.22624 C 773.8308,-240.539 773.82127,-240.22624 781.27489,-255.13348 C 788.72851,-270.04072 787.73126,-268.08138 791.43892,-274.10633 C 796.85973,-282.91516 799.57014,-292.40158 803.63575,-298.5 C 805.89094,-301.88279 813.13855,-318.45401 816.51018,-328.31448 C 819.40181,-336.77118 822.83307,-345.47863 825.31901,-354.06335 C 829.0086,-366.80463 833.50276,-382.31176 838.19344,-394.71946 C 844.71639,-411.97387 863.02876,-412.37703 871.39592,-395.39706 C 877.57165,-382.86429 869.21915,-363.756 866.65271,-347.28733 C 875.09518,-359.05312 890.98103,-348.32226 893.07919,-339.83371 C 895.66488,-329.37274 893.94811,-314.58504 892.40158,-303.92081 C 891.52391,-297.86879 888.28525,-290.24494 886.98077,-284.27036 C 885.3554,-276.82611 883.57779,-268.5795 881.55996,-261.23191 C 879.65061,-254.27931 876.18501,-243.74211 874.10633,-236.83824 C 871.29016,-227.48495 869.64655,-214.48041 867.33032,-204.99095 C 865.88023,-199.05003 862.7727,-191.3946 861.9095,-185.3405 C 859.87205,-171.05067 861.46014,-151.66332 861.2319,-137.23077 C 861.04866,-125.64344 861.04152,-110.18599 860.5543,-98.607466 C 859.65493,-77.234544 859.37199,-48.552655 855.81109,-27.459276 C 854.0215,-16.858439 847.68014,-3.5666222 846.32466,7.0984163 C 841.22372,47.232986 853.10068,142.61878 848.35747,141.94118 C 843.61425,141.26357 698.60747,142.61878 699.96267,141.26357 z"
           style="opacity:1;fill:#ffffff;fill-opacity:1;stroke:#000000;stroke-width:3.2150743;stroke-linecap:round;stroke-linejoin:round;stroke-miterlimit:4;stroke-dasharray:none;stroke-opacity:1" />
        <path
           id="path3405"
           d="M 680.98982,-374.3914 C 686.56041,-343.64458 696.76275,-299.87634 708.77149,-228.02941 L 708.77149,-228.02941"
           style="opacity:1;fill:#ffffff;fill-opacity:0.13461537;stroke:#000000;stroke-width:3.2150743;stroke-linecap:round;stroke-linejoin:round;stroke-miterlimit:4;stroke-dasharray:none;stroke-opacity:1" />
        <path
           id="path3407"
           d="M 866.65271,-348.64253 C 838.33085,-268.92064 850.04432,-314.24833 817.18778,-213.12217"
           style="opacity:1;fill:#ffffff;fill-opacity:0.13461537;stroke:#000000;stroke-width:3.2150743;stroke-linecap:round;stroke-linejoin:round;stroke-miterlimit:4;stroke-dasharray:none;stroke-opacity:1" />
      </g>
    </g>
  </g>
</svg>
